{
	"asset":{
		"generator":"Khronos glTF Blender I/O v4.2.57",
		"version":"2.0"
	},
	"extensionsUsed":[
		"KHR_materials_emissive_strength"
	],
	"scene":0,
	"scenes":[
		{
			"name":"Scene",
			"nodes":[
				0
			]
		}
	],
	"nodes":[
		{
			"mesh":0,
			"name":"Lander_Lander",
			"scale":[
				0.009999999776482582,
				0.009999999776482582,
				0.009999999776482582
			]
		}
	],
	"materials":[
		{
			"doubleSided":true,
			"emissiveFactor":[
				1,
				1,
				1
			],
			"emissiveTexture":{
				"index":0
			},
			"extensions":{
				"KHR_materials_emissive_strength":{
					"emissiveStrength":2.5
				}
			},
			"name":"M_Vehicles",
			"pbrMetallicRoughness":{
				"baseColorTexture":{
					"index":1
				},
				"metallicFactor":0.3499999940395355,
				"roughnessFactor":0.47999998927116394
			}
		}
	],
	"meshes":[
		{
			"name":"Mesh",
			"primitives":[
				{
					"attributes":{
						"POSITION":0,
						"NORMAL":1,
						"TEXCOORD_0":2
					},
					"indices":3,
					"material":0
				}
			]
		}
	],
	"textures":[
		{
			"sampler":0,
			"source":0
		},
		{
			"sampler":0,
			"source":1
		}
	],
	"images":[
		{
			"mimeType":"image/png",
			"name":"T_Vehicles_emissive",
			"uri":"textures/T_Vehicles_emissive.png"
		},
		{
			"mimeType":"image/png",
			"name":"T_Vehicles_diffuse",
			"uri":"textures/T_Vehicles_diffuse.png"
		}
	],
	"accessors":[
		{
			"bufferView":0,
			"componentType":5126,
			"count":2957,
			"max":[
				135,
				350.0000305175781,
				119.99993896484375
			],
			"min":[
				-135.0001220703125,
				1.9550483557395637e-05,
				-120
			],
			"type":"VEC3"
		},
		{
			"bufferView":1,
			"componentType":5126,
			"count":2957,
			"type":"VEC3"
		},
		{
			"bufferView":2,
			"componentType":5126,
			"count":2957,
			"type":"VEC2"
		},
		{
			"bufferView":3,
			"componentType":5123,
			"count":5754,
			"type":"SCALAR"
		}
	],
	"bufferViews":[
		{
			"buffer":0,
			"byteLength":35484,
			"byteOffset":0,
			"target":34962
		},
		{
			"buffer":0,
			"byteLength":35484,
			"byteOffset":35484,
			"target":34962
		},
		{
			"buffer":0,
			"byteLength":23656,
			"byteOffset":70968,
			"target":34962
		},
		{
			"buffer":0,
			"byteLength":11508,
			"byteOffset":94624,
			"target":34963
		}
	],
	"samplers":[
		{
			"magFilter":9729,
			"minFilter":9987
		}
	],
	"buffers":[
		{
			"byteLength":106132,
			"uri":"Lander.bin"
		}
	]
}
